<svg width="33" height="32" viewBox="0 0 33 32" fill="none" xmlns="http://www.w3.org/2000/svg">
<path d="M9.56009 2.56006C6.03283 2.56006 3.16008 5.43281 3.16008 8.96006V23.0401C3.16008 26.5673 6.03283 29.4401 9.56009 29.4401H23.6401C27.1673 29.4401 30.0401 26.5673 30.0401 23.0401V8.96006C30.0401 5.43281 27.1673 2.56006 23.6401 2.56006H9.56009ZM8.92009 10.2401H24.2801C24.3953 10.2401 24.5039 10.2531 24.6063 10.2851L18.3151 16.5701C17.3679 17.5173 15.826 17.5173 14.8788 16.5701L8.59384 10.2851C8.69624 10.2531 8.80489 10.2401 8.92009 10.2401ZM7.68509 11.1938L12.4976 16.0001L7.68509 20.8063C7.65309 20.7039 7.64009 20.5953 7.64009 20.4801V11.5201C7.64009 11.4049 7.65309 11.2962 7.68509 11.1938ZM25.5151 11.1938C25.5471 11.2962 25.5601 11.4049 25.5601 11.5201V20.4801C25.5601 20.5953 25.5471 20.7039 25.5151 20.8063L20.6963 16.0001L25.5151 11.1938ZM13.4001 16.9026L13.9701 17.4788C14.6933 18.202 15.6466 18.5601 16.5938 18.5601C17.5474 18.5601 18.4944 18.202 19.2176 17.4788L19.7938 16.9026L24.6063 21.7151C24.5039 21.7471 24.3953 21.7601 24.2801 21.7601H8.92009C8.80489 21.7601 8.69624 21.7471 8.59384 21.7151L13.4001 16.9026Z" fill="white"/>
</svg>
