<svg width="33" height="32" viewBox="0 0 33 32" fill="none" xmlns="http://www.w3.org/2000/svg">
<path d="M10.8646 3.19995C6.74835 3.19995 3.40003 6.55137 3.40003 10.6687V21.3354C3.40003 25.4516 6.75145 28.8 10.8688 28.8H21.5355C25.6517 28.8 29 25.4485 29 21.3312V10.6645C29 6.54827 25.6486 3.19995 21.5313 3.19995H10.8646ZM23.6667 7.46662C24.2555 7.46662 24.7334 7.94449 24.7334 8.53329C24.7334 9.12209 24.2555 9.59995 23.6667 9.59995C23.0779 9.59995 22.6 9.12209 22.6 8.53329C22.6 7.94449 23.0779 7.46662 23.6667 7.46662ZM16.2 9.59995C19.7296 9.59995 22.6 12.4704 22.6 16C22.6 19.5296 19.7296 22.4 16.2 22.4C12.6704 22.4 9.80004 19.5296 9.80004 16C9.80004 12.4704 12.6704 9.59995 16.2 9.59995ZM16.2 11.7333C15.0684 11.7333 13.9832 12.1828 13.183 12.983C12.3829 13.7831 11.9334 14.8684 11.9334 16C11.9334 17.1315 12.3829 18.2168 13.183 19.0169C13.9832 19.8171 15.0684 20.2666 16.2 20.2666C17.3316 20.2666 18.4169 19.8171 19.217 19.0169C20.0172 18.2168 20.4667 17.1315 20.4667 16C20.4667 14.8684 20.0172 13.7831 19.217 12.983C18.4169 12.1828 17.3316 11.7333 16.2 11.7333Z" fill="white"/>
</svg>
