<svg width="184" height="32" viewBox="0 0 184 32" fill="none" xmlns="http://www.w3.org/2000/svg">
<path d="M15.0411 31.8993C12.8658 31.8993 10.863 31.5412 9.03262 30.825C7.20222 30.1087 5.61057 29.114 4.25766 27.8406C2.90476 26.5408 1.85693 25.0287 1.11416 23.3044C0.371385 21.5536 0 19.6436 0 17.5745C0 15.5053 0.371385 13.6086 1.11416 11.8843C1.85693 10.1335 2.90476 8.62146 4.25766 7.34814C5.61057 6.04829 7.20222 5.04025 9.03262 4.324C10.863 3.60776 12.8526 3.24964 15.0013 3.24964C17.1766 3.24964 19.1661 3.60776 20.97 4.324C22.8004 5.04025 24.392 6.04829 25.7449 7.34814C27.0978 8.62146 28.1457 10.1335 28.8885 11.8843C29.6312 13.6086 30.0026 15.5053 30.0026 17.5745C30.0026 19.6436 29.6312 21.5536 28.8885 23.3044C28.1457 25.0552 27.0978 26.5673 25.7449 27.8406C24.392 29.114 22.8004 30.1087 20.97 30.825C19.1661 31.5412 17.1898 31.8993 15.0411 31.8993ZM15.0013 27.3631C16.4073 27.3631 17.7071 27.1244 18.9008 26.6469C20.0946 26.1694 21.1292 25.493 22.0046 24.6175C22.88 23.7156 23.5564 22.681 24.0339 21.5138C24.5379 20.3201 24.79 19.007 24.79 17.5745C24.79 16.142 24.5379 14.8422 24.0339 13.6749C23.5564 12.4812 22.88 11.4466 22.0046 10.5712C21.1292 9.6693 20.0946 8.97958 18.9008 8.50209C17.7071 8.02459 16.4073 7.78584 15.0013 7.78584C13.5953 7.78584 12.2955 8.02459 11.1018 8.50209C9.93455 8.97958 8.89998 9.6693 7.99804 10.5712C7.12263 11.4466 6.43292 12.4812 5.9289 13.6749C5.4514 14.8422 5.21265 16.142 5.21265 17.5745C5.21265 18.9804 5.4514 20.2803 5.9289 21.474C6.43292 22.6678 7.12263 23.7156 7.99804 24.6175C8.87345 25.493 9.90802 26.1694 11.1018 26.6469C12.2955 27.1244 13.5953 27.3631 15.0013 27.3631Z" fill="white"/>
<path d="M45.6723 10.0142C47.37 10.0142 48.8821 10.3457 50.2085 11.0089C51.5614 11.6721 52.6225 12.6934 53.3918 14.0729C54.1611 15.4258 54.5457 17.1766 54.5457 19.3253V31.5014H49.5718V19.962C49.5718 18.0785 49.1209 16.6726 48.2189 15.7441C47.3435 14.8156 46.11 14.3514 44.5183 14.3514C43.3511 14.3514 42.3166 14.5901 41.4146 15.0676C40.5127 15.5451 39.8097 16.2614 39.3057 17.2164C38.8282 18.1448 38.5894 19.3253 38.5894 20.7578V31.5014H33.6155V10.2529H38.3507V15.9828V13.1767C38.8694 12.0203 39.3322 11.8446 40.7382 11.1283C42.1707 10.3855 43.8154 10.0142 45.6723 10.0142Z" fill="white"/>
<path d="M59.9402 31.5014V3.64755H72.1164C75.1405 3.64755 77.7933 4.23116 80.0746 5.39837C82.356 6.56558 84.1333 8.18375 85.4066 10.2529C86.68 12.322 87.3166 14.7626 87.3166 17.5745C87.3166 20.3599 86.68 22.8004 85.4066 24.8961C84.1333 26.9652 82.356 28.5834 80.0746 29.7506C77.7933 30.9178 75.1405 31.5014 72.1164 31.5014H59.9402ZM65.1131 27.1244H71.8776C73.9733 27.1244 75.7772 26.7265 77.2892 25.9307C78.8278 25.1348 80.0083 24.0207 80.8307 22.5882C81.6795 21.1557 82.104 19.4845 82.104 17.5745C82.104 15.638 81.6795 13.9668 80.8307 12.5608C80.0083 11.1283 78.8278 10.0142 77.2892 9.21833C75.7772 8.4225 73.9733 8.02459 71.8776 8.02459H65.1131V27.1244Z" fill="white"/>
<path d="M99.9373 31.78C98.1334 31.78 96.5418 31.4484 95.1623 30.7852C93.7829 30.0955 92.7085 29.0609 91.9393 27.6815C91.17 26.2755 90.7853 24.5114 90.7853 22.3892V10.2529H95.7592V21.7128C95.7592 23.6228 96.1836 25.0552 97.0325 26.0102C97.9079 26.9387 99.1415 27.4029 100.733 27.4029C101.9 27.4029 102.908 27.1642 103.757 26.6867C104.633 26.2092 105.309 25.493 105.787 24.538C106.291 23.583 106.543 22.4025 106.543 20.9965V10.2529H111.517V31.5014H106.781V25.7715L107.617 27.5223C106.901 28.9017 105.853 29.9628 104.474 30.7056C103.094 31.4219 101.582 31.78 99.9373 31.78Z" fill="white"/>
<path d="M120.695 26.7663L120.814 20.519L131.916 10.2529H137.885L128.454 19.7232L125.828 21.9117L120.695 26.7663ZM116.636 31.5014V1.97632H121.61V31.5014H116.636ZM132.672 31.5014L124.913 21.9117L128.056 17.9326L138.72 31.5014H132.672Z" fill="white"/>
<path d="M149.673 31.78C147.312 31.78 145.243 31.3157 143.466 30.3873C141.715 29.4323 140.349 28.1324 139.367 26.4877C138.412 24.843 137.935 22.9728 137.935 20.8772C137.935 18.755 138.399 16.8848 139.328 15.2666C140.283 13.6219 141.582 12.3353 143.227 11.4068C144.898 10.4784 146.795 10.0142 148.917 10.0142C150.986 10.0142 152.83 10.4651 154.448 11.3671C156.066 12.269 157.34 13.5423 158.268 15.187C159.197 16.8317 159.661 18.7682 159.661 20.9965C159.661 21.2088 159.648 21.4475 159.621 21.7128C159.621 21.9781 159.608 22.2301 159.581 22.4688H141.874V19.1661H156.955L155.005 20.2007C155.032 18.9804 154.78 17.9061 154.249 16.9776C153.719 16.0492 152.989 15.3197 152.061 14.7891C151.159 14.2586 150.111 13.9933 148.917 13.9933C147.697 13.9933 146.623 14.2586 145.694 14.7891C144.792 15.3197 144.076 16.0624 143.545 17.0174C143.041 17.9459 142.789 19.0468 142.789 20.3201V21.1159C142.789 22.3892 143.081 23.5167 143.665 24.4982C144.248 25.4797 145.071 26.2357 146.132 26.7663C147.193 27.2968 148.413 27.5621 149.793 27.5621C150.986 27.5621 152.061 27.3764 153.016 27.005C153.971 26.6336 154.82 26.05 155.562 25.2542L158.228 28.3181C157.273 29.4323 156.066 30.2944 154.607 30.9046C153.175 31.4882 151.53 31.78 149.673 31.78Z" fill="white"/>
<path d="M175.103 10.0142C176.8 10.0142 178.312 10.3457 179.639 11.0089C180.992 11.6721 182.053 12.6934 182.822 14.0729C183.591 15.4258 183.976 17.1766 183.976 19.3253V31.5014H179.002V19.962C179.002 18.0785 178.551 16.6726 177.649 15.7441C176.774 14.8156 175.54 14.3514 173.949 14.3514C172.782 14.3514 171.747 14.5901 170.845 15.0676C169.943 15.5451 169.24 16.2614 168.736 17.2164C168.259 18.1448 168.02 19.3253 168.02 20.7578V31.5014H163.046V10.2529H167.781V15.9828L166.945 14.232C167.688 12.8791 168.763 11.8446 170.169 11.1283C171.601 10.3855 173.246 10.0142 175.103 10.0142Z" fill="white"/>
<path d="M30.5796 7.46072C30.5796 10.2077 28.3527 12.4346 25.6057 12.4346C22.8587 12.4346 20.6318 10.2077 20.6318 7.46072C20.6318 4.71371 22.8587 2.48682 25.6057 2.48682C28.3527 2.48682 30.5796 4.71371 30.5796 7.46072Z" fill="#83EC69"/>
<path fill-rule="evenodd" clip-rule="evenodd" d="M33.0665 7.46086C33.0665 11.5814 29.7262 14.9217 25.6057 14.9217C21.4852 14.9217 18.1448 11.5814 18.1448 7.46086C18.1448 3.34034 21.4852 0 25.6057 0C29.7262 0 33.0665 3.34034 33.0665 7.46086ZM25.6057 12.4348C28.3527 12.4348 30.5796 10.2079 30.5796 7.46086C30.5796 4.71385 28.3527 2.48695 25.6057 2.48695C22.8587 2.48695 20.6318 4.71385 20.6318 7.46086C20.6318 10.2079 22.8587 12.4348 25.6057 12.4348Z" fill="#1E1E1E"/>
</svg>
