<svg width="33" height="32" viewBox="0 0 33 32" fill="none" xmlns="http://www.w3.org/2000/svg">
<path d="M16.4001 3.19995C9.33126 3.19995 3.60006 8.93115 3.60006 16C3.60006 18.4012 4.27455 20.64 5.42506 22.5604L3.71464 28.8L10.0876 27.127C11.9514 28.1867 14.103 28.8 16.4001 28.8C23.4689 28.8 29.2001 23.0688 29.2001 16C29.2001 8.93115 23.4689 3.19995 16.4001 3.19995ZM12.0188 10.0291C12.2268 10.0291 12.4405 10.0279 12.6251 10.0375C12.8533 10.0428 13.1018 10.0595 13.3396 10.5854C13.6223 11.2104 14.2378 12.7785 14.3167 12.9375C14.3957 13.0964 14.4516 13.2836 14.3417 13.4916C14.2372 13.705 14.1828 13.8341 14.0292 14.0229C13.8703 14.2063 13.6961 14.4342 13.5521 14.5729C13.3932 14.7318 13.2291 14.9061 13.4126 15.2229C13.596 15.5397 14.2332 16.5782 15.1751 17.4166C16.3857 18.4982 17.4072 18.8306 17.7251 18.9895C18.0429 19.1485 18.227 19.1237 18.4105 18.9104C18.5993 18.7024 19.2034 17.9887 19.4167 17.6708C19.6247 17.3529 19.8371 17.4079 20.1251 17.5125C20.4173 17.617 21.9759 18.3848 22.2938 18.5437C22.6117 18.7026 22.8201 18.7813 22.9001 18.9104C22.9822 19.0437 22.9823 19.6784 22.7188 20.4187C22.4553 21.1579 21.1616 21.8727 20.5813 21.9229C19.9957 21.9773 19.4492 22.1861 16.7751 21.1333C13.5495 19.8629 11.5152 16.5591 11.3563 16.3458C11.1974 16.1378 10.0646 14.6281 10.0646 13.0708C10.0646 11.5081 10.884 10.7428 11.1709 10.425C11.4632 10.1071 11.8055 10.0291 12.0188 10.0291Z" fill="white"/>
</svg>
