<svg width="30" height="29" viewBox="0 0 30 29" fill="none" xmlns="http://www.w3.org/2000/svg">
<path fill-rule="evenodd" clip-rule="evenodd" d="M14.9979 1.51862C17.3806 0.0162487 20.5458 -0.398805 23.2801 0.475145C29.228 2.38819 31.0744 8.85513 29.4229 14.0009C26.8747 22.0828 15.9914 28.1113 15.5298 28.3641C15.3657 28.4547 15.184 28.5 15.0023 28.5C14.8206 28.5 14.6404 28.4562 14.4762 28.367C14.0176 28.1171 3.21347 22.1777 0.580219 14.0024C0.578754 14.0024 0.578754 14.0009 0.578754 14.0009C-1.07417 8.85367 0.766321 2.38527 6.70836 0.475145C9.49841 -0.425111 12.539 -0.0290564 14.9979 1.51862ZM7.38242 2.5621C2.57458 4.10832 1.36712 9.2658 2.67275 13.333C4.72719 19.7079 12.8438 24.8624 15.0008 26.1383C17.1652 24.8493 25.3404 19.6377 27.3289 13.3389C28.6346 9.26726 27.4227 4.10978 22.6075 2.5621C20.2747 1.8153 17.5535 2.26981 15.6749 3.71957C15.2822 4.02063 14.7371 4.02648 14.3414 3.72834C12.3515 2.2362 9.75191 1.79922 7.38242 2.5621ZM21.2008 5.46441C23.1981 6.10891 24.5975 7.87288 24.7689 9.95838C24.8173 10.562 24.3674 11.091 23.7622 11.1392C23.7315 11.1422 23.7022 11.1436 23.6714 11.1436C23.1043 11.1436 22.6236 10.7096 22.5768 10.1367C22.48 8.93536 21.6741 7.92111 20.5267 7.55136C19.9479 7.3643 19.6314 6.7461 19.8175 6.17175C20.0065 5.59594 20.6205 5.28319 21.2008 5.46441Z" fill="#FC4D4D"/>
</svg>
