<svg width="30" height="30" viewBox="0 0 30 30" fill="none" xmlns="http://www.w3.org/2000/svg">
<path fill-rule="evenodd" clip-rule="evenodd" d="M21.126 0C26.433 0 30 3.414 30 8.4975V21.501C30 26.5845 26.433 30 21.126 30H8.874C3.567 30 0 26.5845 0 21.501V8.4975C0 3.414 3.567 0 8.874 0H21.126ZM21.126 2.25H8.874C4.8495 2.25 2.25 4.7025 2.25 8.4975V21.501C2.25 25.296 4.8495 27.75 8.874 27.75H21.126C25.1505 27.75 27.75 25.296 27.75 21.501V8.4975C27.75 4.7025 25.1505 2.25 21.126 2.25ZM16.277 8.5815L21.9128 14.1934C21.9549 14.2343 21.9939 14.2785 22.0292 14.3256L21.923 14.2035C21.9761 14.2559 22.0234 14.3131 22.0644 14.3742C22.0823 14.4019 22.0997 14.4305 22.1158 14.4599C22.129 14.4828 22.1411 14.5068 22.1523 14.5312C22.1625 14.5546 22.1723 14.5782 22.1814 14.6021C22.1907 14.6254 22.1988 14.6492 22.2061 14.6733C22.2314 14.7582 22.2474 14.8474 22.2522 14.9395C22.2539 14.9599 22.2544 14.9799 22.2544 15L22.2495 15.0585L22.2436 15.1526C22.2355 15.2123 22.2227 15.2704 22.2056 15.3268C22.1988 15.3508 22.1907 15.3746 22.1818 15.3981C22.1723 15.4218 22.1625 15.4454 22.1519 15.4685C22.1411 15.4932 22.129 15.5172 22.1161 15.5407C22.0997 15.5695 22.0823 15.5981 22.0637 15.6259C22.0533 15.6423 22.0418 15.6584 22.0298 15.6743C21.9971 15.7172 21.962 15.7576 21.9242 15.7954L21.923 15.7965L16.277 21.4185C16.058 21.6375 15.7699 21.747 15.4834 21.747C15.1954 21.747 14.9059 21.6375 14.6869 21.4155C14.2489 20.9745 14.2504 20.2635 14.6899 19.8255L18.405 16.125H8.87085C8.24985 16.125 7.74585 15.621 7.74585 15C7.74585 14.379 8.24985 13.875 8.87085 13.875H18.405L14.6899 10.1745C14.2504 9.7365 14.2489 9.0255 14.6869 8.5845C15.1249 8.1435 15.836 8.1435 16.277 8.5815Z" fill="#484848"/>
</svg>
