<svg width="31" height="30" viewBox="0 0 31 30" fill="none" xmlns="http://www.w3.org/2000/svg">
<path fill-rule="evenodd" clip-rule="evenodd" d="M8.3974 25.3747C9.4684 25.3747 10.3399 26.2429 10.3399 27.3117C10.3399 28.3804 9.4684 29.2501 8.3974 29.2501C7.32639 29.2501 6.45639 28.3804 6.45639 27.3117C6.45639 26.2429 7.32639 25.3747 8.3974 25.3747ZM25.3179 25.3747C26.3904 25.3747 27.2619 26.2429 27.2619 27.3117C27.2619 28.3804 26.3904 29.2501 25.3179 29.2501C24.2469 29.2501 23.3769 28.3804 23.3769 27.3117C23.3769 26.2429 24.2469 25.3747 25.3179 25.3747ZM1.98367 0.0142008L5.10368 0.553073C5.60618 0.641388 5.98869 1.05752 6.03219 1.56645L6.38469 5.75918L7.69547 5.75974C7.90936 5.75983 8.12099 5.75993 8.33038 5.76002L10.7368 5.76117C10.9287 5.76126 11.1183 5.76136 11.3059 5.76145L13.963 5.76291C14.1299 5.76301 14.2948 5.7631 14.4578 5.7632L16.3198 5.76439C16.4673 5.76449 16.6129 5.76459 16.7567 5.76469L18.3944 5.76589C18.5237 5.76599 18.6513 5.76609 18.7771 5.76619L20.205 5.76742C20.3173 5.76752 20.428 5.76762 20.5371 5.76773L21.4756 5.76866C21.5752 5.76876 21.6732 5.76887 21.7697 5.76897L22.8566 5.77023C22.9413 5.77033 23.0247 5.77044 23.1066 5.77055L24.0243 5.77182C24.0954 5.77193 24.1652 5.77204 24.2338 5.77215L24.817 5.77312C24.8781 5.77323 24.938 5.77334 24.9968 5.77344L25.6464 5.77476C25.6961 5.77487 25.7447 5.77498 25.7922 5.77509L26.1921 5.77609C26.2335 5.7762 26.2739 5.77631 26.3133 5.77642L26.7419 5.77777C26.7741 5.77788 26.8053 5.778 26.8358 5.77811L27.0874 5.77914C27.113 5.77925 27.1378 5.77936 27.1619 5.77948L27.4165 5.78086C27.435 5.78098 27.4528 5.78109 27.47 5.78121L27.6088 5.78226C27.6225 5.78238 27.6356 5.7825 27.6482 5.78261L27.7481 5.78368C27.7578 5.7838 27.767 5.78391 27.7758 5.78403L27.8437 5.78511C27.8501 5.78523 27.8562 5.78535 27.8619 5.78547L27.9049 5.78655C27.9088 5.78667 27.9125 5.7868 27.9159 5.78692L27.947 5.78838C27.949 5.78851 27.9507 5.78863 27.9524 5.78875C27.967 5.79011 27.9691 5.79036 27.9713 5.79061C28.8068 5.91186 29.5418 6.34745 30.0428 7.01804C30.5438 7.68714 30.7538 8.51192 30.6338 9.33819L29.2103 19.1546C28.9418 21.0227 27.3158 22.4313 25.4258 22.4313H9.0442C7.06869 22.4313 5.39618 20.8925 5.23568 18.9241L3.86168 2.61725L1.60117 2.22807C0.987667 2.12029 0.578165 1.54101 0.683166 0.928787C0.791166 0.316568 1.38367 -0.0815987 1.98367 0.0142008ZM7.39454 8.00499L6.57369 8.00448L7.47819 18.74C7.54419 19.5663 8.2207 20.186 9.0472 20.186H25.4228C26.2043 20.186 26.8718 19.6052 26.9828 18.8343L28.4078 9.01636C28.4408 8.78285 28.3823 8.54934 28.2398 8.36073C28.0988 8.17063 27.8918 8.04789 27.6578 8.01496C27.647 8.01537 27.6211 8.01575 27.5808 8.01609L27.4176 8.01702C27.3835 8.01716 27.346 8.01729 27.3051 8.01741L26.4554 8.0187C26.3837 8.01875 26.3091 8.0188 26.2318 8.01884L24.2338 8.01875C24.1224 8.01871 24.0088 8.01866 23.8932 8.01861L21.613 8.01723C21.4764 8.01713 21.3383 8.01703 21.1988 8.01692L19.9086 8.01589C19.7616 8.01577 19.6135 8.01564 19.4645 8.01552L18.0978 8.01432C17.9435 8.01418 17.7884 8.01404 17.6327 8.0139L16.6913 8.01303C16.5334 8.01289 16.375 8.01274 16.2162 8.01259L14.7796 8.01125C14.6194 8.0111 14.4592 8.01096 14.2989 8.01081L13.3379 8.00991C13.178 8.00977 13.0182 8.00962 12.8588 8.00947L11.906 8.00861C11.748 8.00847 11.5904 8.00833 11.4334 8.00819L10.0376 8.00699C9.88473 8.00686 9.73267 8.00674 9.58152 8.00662L7.81763 8.00528C7.67528 8.00518 7.53422 8.00508 7.39454 8.00499ZM23.0136 11.292C23.6346 11.292 24.1386 11.795 24.1386 12.4147C24.1386 13.0344 23.6346 13.5373 23.0136 13.5373H18.8556C18.2331 13.5373 17.7306 13.0344 17.7306 12.4147C17.7306 11.795 18.2331 11.292 18.8556 11.292H23.0136Z" fill="#484848"/>
</svg>
