<svg width="31" height="29" viewBox="0 0 31 29" fill="none" xmlns="http://www.w3.org/2000/svg">
<path fill-rule="evenodd" clip-rule="evenodd" d="M15.3313 1.51862C17.714 0.0162487 20.8791 -0.398805 23.6135 0.475145C29.5614 2.38819 31.4078 8.85513 29.7563 14.0009C27.208 22.0828 16.3248 28.1113 15.8632 28.3641C15.6991 28.4547 15.5174 28.5 15.3357 28.5C15.154 28.5 14.9737 28.4562 14.8096 28.367C14.351 28.1171 3.54685 22.1777 0.913593 14.0024C0.912128 14.0024 0.912128 14.0009 0.912128 14.0009C-0.740799 8.85367 1.09969 2.38527 7.04173 0.475145C9.83178 -0.425111 12.8724 -0.0290564 15.3313 1.51862ZM7.7158 2.5621C2.90795 4.10832 1.70049 9.2658 3.00613 13.333C5.06056 19.7079 13.1772 24.8624 15.3342 26.1383C17.4985 24.8493 25.6738 19.6377 27.6623 13.3389C28.9679 9.26726 27.7561 4.10978 22.9409 2.5621C20.608 1.8153 17.8869 2.26981 16.0083 3.71957C15.6156 4.02063 15.0704 4.02648 14.6748 3.72834C12.6848 2.2362 10.0853 1.79922 7.7158 2.5621ZM21.5342 5.46441C23.5314 6.10891 24.9309 7.87288 25.1023 9.95838C25.1507 10.562 24.7008 11.091 24.0956 11.1392C24.0648 11.1422 24.0355 11.1436 24.0048 11.1436C23.4377 11.1436 22.957 10.7096 22.9101 10.1367C22.8134 8.93536 22.0075 7.92111 20.8601 7.55136C20.2813 7.3643 19.9647 6.7461 20.1509 6.17175C20.3399 5.59594 20.9539 5.28319 21.5342 5.46441Z" fill="#484848"/>
</svg>
