<svg width="32" height="20" viewBox="0 0 32 20" fill="none" xmlns="http://www.w3.org/2000/svg">
<path d="M1.12278 0.0107309C10.9559 -0.00904013 20.7905 0.00999831 30.6237 0.00121117C30.932 -0.00977275 31.2539 0.0524698 31.5032 0.248716C31.944 0.569446 32.1219 1.20432 31.9123 1.71324C31.7308 2.20678 31.2165 2.52751 30.7036 2.50188C20.8798 2.50042 11.0561 2.50408 1.23227 2.50042C0.676899 2.50847 0.156825 2.08816 0.0365304 1.53749C-0.150034 0.830131 0.403176 0.050273 1.12278 0.0107309Z" fill="white"/>
<path d="M0.901631 8.79786C1.1984 8.7239 1.50742 8.75538 1.80924 8.75026C11.4378 8.75026 21.0664 8.75099 30.695 8.75026C31.1653 8.72536 31.6393 8.98385 31.8554 9.41295C32.1104 9.8816 32.0182 10.5106 31.64 10.8826C31.3951 11.1382 31.0414 11.2612 30.6942 11.2502C21.0664 11.2495 11.4378 11.2502 1.80924 11.2502C1.52471 11.2465 1.23586 11.2707 0.954214 11.2158C0.437022 11.1023 0.0300382 10.6117 0.00698779 10.0742C-0.0376723 9.50376 0.358506 8.94284 0.901631 8.79786Z" fill="white"/>
<path d="M1.11845 17.5074C10.9783 17.4869 20.8388 17.5052 30.6986 17.4979C31.1733 17.4744 31.6523 17.7402 31.8641 18.1774C32.096 18.6219 32.0232 19.2055 31.6897 19.5775C31.4448 19.8638 31.0688 20.0117 30.6986 19.9985C21.0455 19.9978 11.3924 19.9978 1.74009 19.9985C1.4037 19.9919 1.04858 20.0366 0.733797 19.8887C0.263425 19.6822 -0.0455938 19.1535 0.00987118 18.6336C0.0523703 18.0522 0.545072 17.5462 1.11845 17.5074Z" fill="white"/>
</svg>
