<svg width="223" height="39" viewBox="0 0 223 39" fill="none" xmlns="http://www.w3.org/2000/svg">
<path d="M18.256 38.48C15.632 38.48 13.216 38.048 11.008 37.184C8.8 36.32 6.88 35.12 5.248 33.584C3.616 32.016 2.352 30.192 1.456 28.112C0.56 26 0.112 23.696 0.112 21.2C0.112 18.704 0.56 16.416 1.456 14.336C2.352 12.224 3.616 10.4 5.248 8.864C6.88 7.296 8.8 6.08 11.008 5.216C13.216 4.352 15.616 3.92 18.208 3.92C20.832 3.92 23.232 4.352 25.408 5.216C27.616 6.08 29.536 7.296 31.168 8.864C32.8 10.4 34.064 12.224 34.96 14.336C35.856 16.416 36.304 18.704 36.304 21.2C36.304 23.696 35.856 26 34.96 28.112C34.064 30.224 32.8 32.048 31.168 33.584C29.536 35.12 27.616 36.32 25.408 37.184C23.232 38.048 20.848 38.48 18.256 38.48ZM18.208 33.008C19.904 33.008 21.472 32.72 22.912 32.144C24.352 31.568 25.6 30.752 26.656 29.696C27.712 28.608 28.528 27.36 29.104 25.952C29.712 24.512 30.016 22.928 30.016 21.2C30.016 19.472 29.712 17.904 29.104 16.496C28.528 15.056 27.712 13.808 26.656 12.752C25.6 11.664 24.352 10.832 22.912 10.256C21.472 9.68 19.904 9.392 18.208 9.392C16.512 9.392 14.944 9.68 13.504 10.256C12.096 10.832 10.848 11.664 9.76 12.752C8.704 13.808 7.872 15.056 7.264 16.496C6.688 17.904 6.4 19.472 6.4 21.2C6.4 22.896 6.688 24.464 7.264 25.904C7.872 27.344 8.704 28.608 9.76 29.696C10.816 30.752 12.064 31.568 13.504 32.144C14.944 32.72 16.512 33.008 18.208 33.008Z" fill="#1E1E1E"/>
<path d="M55.2062 12.08C57.2542 12.08 59.0782 12.48 60.6782 13.28C62.3102 14.08 63.5902 15.312 64.5182 16.976C65.4462 18.608 65.9102 20.72 65.9102 23.312V38H59.9103V24.08C59.9103 21.808 59.3663 20.112 58.2783 18.992C57.2223 17.872 55.7343 17.312 53.8143 17.312C52.4063 17.312 51.1583 17.6 50.0703 18.176C48.9823 18.752 48.1342 19.616 47.5262 20.768C46.9502 21.888 46.6623 23.312 46.6623 25.04V38H40.6623V12.368H46.3742V19.28V15.895C47 14.5 47.5582 14.288 49.2542 13.424C50.9823 12.528 52.9662 12.08 55.2062 12.08Z" fill="#1E1E1E"/>
<path d="M72.4176 38V4.39999H87.1056C90.7536 4.39999 93.9536 5.104 96.7056 6.512C99.4576 7.92 101.602 9.87199 103.138 12.368C104.674 14.864 105.442 17.808 105.442 21.2C105.442 24.56 104.674 27.504 103.138 30.032C101.602 32.528 99.4576 34.48 96.7056 35.888C93.9536 37.296 90.7536 38 87.1056 38H72.4176ZM78.6576 32.72H86.8176C89.3456 32.72 91.5216 32.24 93.3456 31.28C95.2016 30.32 96.6256 28.976 97.6176 27.248C98.6416 25.52 99.1536 23.504 99.1536 21.2C99.1536 18.864 98.6416 16.848 97.6176 15.152C96.6256 13.424 95.2016 12.08 93.3456 11.12C91.5216 10.16 89.3456 9.68 86.8176 9.68H78.6576V32.72Z" fill="#FC4D4D"/>
<path d="M120.666 38.336C118.49 38.336 116.57 37.936 114.906 37.136C113.242 36.304 111.946 35.056 111.018 33.392C110.09 31.696 109.626 29.568 109.626 27.008V12.368H115.626V26.192C115.626 28.496 116.138 30.224 117.162 31.376C118.218 32.496 119.706 33.056 121.626 33.056C123.034 33.056 124.25 32.768 125.274 32.192C126.33 31.616 127.146 30.752 127.722 29.6C128.33 28.448 128.634 27.024 128.634 25.328V12.368H134.634V38H128.922V31.088L129.93 33.2C129.066 34.864 127.802 36.144 126.138 37.04C124.474 37.904 122.65 38.336 120.666 38.336Z" fill="#FC4D4D"/>
<path d="M145.706 32.288L145.85 24.752L159.242 12.368H166.442L155.066 23.792L151.898 26.432L145.706 32.288ZM140.81 38V2.384H146.81V38H140.81ZM160.154 38L150.794 26.432L154.586 21.632L167.45 38H160.154Z" fill="#FC4D4D"/>
<path d="M180.662 38.336C177.814 38.336 175.318 37.776 173.174 36.656C171.062 35.504 169.414 33.936 168.23 31.952C167.078 29.968 166.502 27.712 166.502 25.184C166.502 22.624 167.062 20.368 168.182 18.416C169.334 16.432 170.902 14.88 172.886 13.76C174.902 12.64 177.19 12.08 179.75 12.08C182.246 12.08 184.47 12.624 186.422 13.712C188.374 14.8 189.91 16.336 191.03 18.32C192.15 20.304 192.71 22.64 192.71 25.328C192.71 25.584 192.694 25.872 192.662 26.192C192.662 26.512 192.646 26.816 192.614 27.104H171.254V23.12H189.446L187.094 24.368C187.126 22.896 186.822 21.6 186.182 20.48C185.542 19.36 184.662 18.48 183.542 17.84C182.454 17.2 181.19 16.88 179.75 16.88C178.278 16.88 176.982 17.2 175.862 17.84C174.774 18.48 173.91 19.376 173.27 20.528C172.662 21.648 172.358 22.976 172.358 24.512V25.472C172.358 27.008 172.71 28.368 173.414 29.552C174.118 30.736 175.11 31.648 176.39 32.288C177.67 32.928 179.142 33.248 180.806 33.248C182.246 33.248 183.542 33.024 184.694 32.576C185.846 32.128 186.87 31.424 187.766 30.464L190.982 34.16C189.83 35.504 188.374 36.544 186.614 37.28C184.886 37.984 182.902 38.336 180.662 38.336Z" fill="#FC4D4D"/>
<path d="M211.337 12.08C213.385 12.08 215.209 12.48 216.809 13.28C218.441 14.08 219.722 15.312 220.65 16.976C221.578 18.608 222.042 20.72 222.042 23.312V38H216.042V24.08C216.042 21.808 215.497 20.112 214.41 18.992C213.353 17.872 211.865 17.312 209.945 17.312C208.537 17.312 207.289 17.6 206.201 18.176C205.113 18.752 204.266 19.616 203.658 20.768C203.082 21.888 202.794 23.312 202.794 25.04V38H196.794V12.368H202.505V19.28L201.497 17.168C202.393 15.536 203.689 14.288 205.385 13.424C207.113 12.528 209.097 12.08 211.337 12.08Z" fill="#FC4D4D"/>
<path d="M37 9C37 12.3137 34.3137 15 31 15C27.6863 15 25 12.3137 25 9C25 5.68629 27.6863 3 31 3C34.3137 3 37 5.68629 37 9Z" fill="#83EC69"/>
<path fill-rule="evenodd" clip-rule="evenodd" d="M40 9C40 13.9706 35.9706 18 31 18C26.0294 18 22 13.9706 22 9C22 4.02944 26.0294 0 31 0C35.9706 0 40 4.02944 40 9ZM31 15C34.3137 15 37 12.3137 37 9C37 5.68629 34.3137 3 31 3C27.6863 3 25 5.68629 25 9C25 12.3137 27.6863 15 31 15Z" fill="white"/>
</svg>
