<svg width="22" height="21" viewBox="0 0 22 21" fill="none" xmlns="http://www.w3.org/2000/svg">
<path fill-rule="evenodd" clip-rule="evenodd" d="M10.4733 0C15.9717 0 20.4441 4.32127 20.4441 9.63381C20.4441 12.1403 19.4486 14.4263 17.8195 16.1419L21.0251 19.2327C21.3251 19.5226 21.3261 19.9915 21.0261 20.2814C20.8766 20.4278 20.679 20.5 20.4824 20.5C20.2868 20.5 20.0902 20.4278 19.9397 20.2833L16.6954 17.1575C14.9888 18.478 12.8249 19.2686 10.4733 19.2686C4.97487 19.2686 0.501404 14.9464 0.501404 9.63381C0.501404 4.32127 4.97487 0 10.4733 0ZM10.4733 1.48395C5.82164 1.48395 2.03727 5.13942 2.03727 9.63381C2.03727 14.1282 5.82164 17.7847 10.4733 17.7847C15.1239 17.7847 18.9082 14.1282 18.9082 9.63381C18.9082 5.13942 15.1239 1.48395 10.4733 1.48395Z" fill="white"/>
</svg>
