<svg width="35" height="26" viewBox="0 0 35 26" fill="none" xmlns="http://www.w3.org/2000/svg">
<path d="M6.71021 3.13514C8.18182 2.41743 9.80343 2.02816 11.4322 2.00013C11.8673 1.99167 12.2565 2.4005 12.2441 2.84636C12.2513 3.06903 12.1431 3.26895 12.0266 3.44825C10.8297 5.3729 10.3075 7.72384 10.5678 9.99069C10.7854 11.9984 11.6173 13.9273 12.9069 15.4521C14.0167 16.7733 15.4605 17.7961 17.0589 18.3885C18.2114 18.8132 19.4403 19.0258 20.665 18.9904C20.8897 18.9856 21.1119 19.0898 21.2639 19.258C21.5129 19.5256 21.5562 19.9651 21.3603 20.2767C20.0104 22.4224 17.9676 24.099 15.6275 24.9701C13.3111 25.8422 10.722 25.9269 8.35656 25.207C5.52262 24.3624 3.04331 22.3531 1.57788 19.7261C0.604199 18.0072 0.0805017 16.0307 0.0423584 14.0442V13.6501C0.0665845 12.6082 0.212972 11.5679 0.501624 10.5677C1.41242 7.33193 3.74122 4.56369 6.71021 3.13514ZM2.78403 9.24601C1.95622 10.8803 1.58252 12.7526 1.72118 14.5894C1.83818 16.2904 2.39178 17.9559 3.30515 19.3802C4.17987 20.7511 5.38242 21.9009 6.77722 22.7001C8.78232 23.8631 11.1905 24.264 13.4528 23.8271C15.579 23.4331 17.5635 22.2939 19.0073 20.6458C19.0217 20.5628 18.9027 20.5945 18.8599 20.575C18.3001 20.5025 17.7475 20.3756 17.2058 20.2148C14.4018 19.3924 11.9415 17.4275 10.4617 14.8507C9.63797 13.4327 9.11169 11.8339 8.93077 10.1938C8.68232 8.03642 9.03438 5.81241 9.93384 3.84651C6.8999 4.36218 4.18245 6.44233 2.78403 9.24601Z" fill="#484848"/>
<path fill-rule="evenodd" clip-rule="evenodd" d="M26.5 3.49183L25.9543 6.16151C25.7698 7.0643 25.0643 7.76982 24.1615 7.95434L21.4918 8.5L24.1615 9.04567C25.0643 9.23019 25.7698 9.93571 25.9543 10.8385L26.5 13.5082L27.0457 10.8385C27.2302 9.93571 27.9357 9.23019 28.8385 9.04567L31.5082 8.5L28.8385 7.95434C27.9357 7.76982 27.2302 7.0643 27.0457 6.16151L26.5 3.49183ZM27.4797 1.79346C27.2618 0.72713 25.7382 0.727131 25.5203 1.79346L24.6807 5.90118C24.6004 6.2937 24.2937 6.60045 23.9012 6.68067L19.7935 7.52026C18.7271 7.73821 18.7271 9.2618 19.7935 9.47975L23.9012 10.3193C24.2937 10.3996 24.6004 10.7063 24.6807 11.0988L25.5203 15.2065C25.7382 16.2729 27.2618 16.2729 27.4797 15.2065L28.3193 11.0988C28.3996 10.7063 28.7063 10.3996 29.0988 10.3193L33.2065 9.47975C34.2729 9.2618 34.2729 7.73821 33.2065 7.52026L29.0988 6.68067C28.7063 6.60045 28.3996 6.2937 28.3193 5.90118L27.4797 1.79346Z" fill="#484848"/>
</svg>
