<svg width="22" height="26" viewBox="0 0 22 26" fill="none" xmlns="http://www.w3.org/2000/svg">
<path fill-rule="evenodd" clip-rule="evenodd" d="M11 0C17.0653 0 22 4.972 22 11.084C22 18.5973 13.392 26 11 26C8.608 26 0 18.5973 0 11.084C0 4.972 4.93467 0 11 0ZM11 2C6.03733 2 2 6.076 2 11.084C2 17.456 9.49867 23.664 11 23.9947C12.5013 23.6627 20 17.4547 20 11.084C20 6.076 15.9627 2 11 2ZM11.0013 6.66667C13.3907 6.66667 15.3347 8.61067 15.3347 11.0013C15.3347 13.3907 13.3907 15.3333 11.0013 15.3333C8.612 15.3333 6.668 13.3907 6.668 11.0013C6.668 8.61067 8.612 6.66667 11.0013 6.66667ZM11.0013 8.66667C9.71467 8.66667 8.668 9.71333 8.668 11.0013C8.668 12.288 9.71467 13.3333 11.0013 13.3333C12.288 13.3333 13.3347 12.288 13.3347 11.0013C13.3347 9.71333 12.288 8.66667 11.0013 8.66667Z" fill="#FC4D4D"/>
</svg>
